<svg width="748.77499" height="601.62643" xmlns="http://www.w3.org/2000/svg" data-name="Layer 1">

 <g>
  <title>Layer 1</title>
  <g data-name="Group 223" id="b260cf92-2bd5-4fcd-825b-b44be0dc1899">
   <path fill="#ffb7b7" d="m426.023,340.43147a9.4,9.4 0 0 0 7.986,-11.994l27.174,-19.41l-16.194,-6.236l-23.322,19.388a9.448,9.448 0 0 0 4.357,18.252l-0.001,0z" data-name="Path 2996" id="b843f90d-c4df-4e2f-a156-ce9541eb3b1e"/>
   <path fill="#3f3d56" d="m441.11296,327.64744l-9.015,-15.4l0.191,-0.218l36.372,-41.408l28.24,-48.159l24.523,3.125l0.362,7.412l-0.073,0.111l-38.961,58.567l-0.041,0.035l-41.598,35.935z" data-name="Path 2997" id="e3636758-7d48-4a96-a1fa-6d386b1b4589"/>
   <path fill="#ffb7b7" d="m561.27996,588.18244l-13.866,0l-6.6,-53.491l20.468,0l-0.002,53.491z" data-name="Path 2998" id="baa130ed-3ecb-48db-a86e-eda575f38db0"/>
   <path fill="#2f2e41" d="m564.817,601.62547l-44.716,0l0,-0.566a17.405,17.405 0 0 1 17.4,-17.4l27.314,0l0.002,17.966z" data-name="Path 2999" id="abe385ac-4f05-433e-b276-ac8b5ab6f7ce"/>
   <path fill="#ffb7b7" d="m441.92699,587.72946l-13.489,-3.221l6.005,-53.561l19.908,4.753l-12.424,52.029z" data-name="Path 3000" id="e36b181c-85ec-4cd2-b637-be2252b66dd9"/>
   <path fill="#2f2e41" d="m442.24498,601.62544l-43.494,-10.386l0.131,-0.55a17.406,17.406 0 0 1 20.971,-12.887l0,0l26.564,6.343l-4.172,17.48z" data-name="Path 3001" id="fb7972ee-a107-4b5f-b003-4984de888e25"/>
   <circle fill="#ffb7b7" r="22.934" cy="178.92445" cx="519.385" data-name="Ellipse 572" id="a10709e7-9d95-4087-9d25-b0d1082914a1"/>
   <path fill="#3f3d56" d="m532.75804,299.96546l-58.392,-2.222l-3.264,-38.2c-2.517,-6.992 -2.558,-13 -0.121,-17.844a17.862,17.862 0 0 1 9.861,-8.523l12.777,-15.432a17.391,17.391 0 0 1 13.5,-6.294l33.2,0.227c0.8,-0.481 5.654,-2.948 15.227,1.2c10.383,4.5 7.972,20.134 7.946,20.291l-0.024,0.147l-0.114,0.1l-22.082,18.6l-8.514,47.95z" data-name="Path 3004" id="a50cdc78-563b-4e85-8635-d3be9a4df01e"/>
   <path fill="#2f2e41" d="m474.83501,293.63845l-27.62,50.358l-20.941,229.1l23.66,7.226l41.88,-179.218l48.6,174.133l28.366,0.707l-19.311,-200.95l-16.876,-77.8l-57.758,-3.556z" data-name="Path 3005" id="f45d581f-fa36-4b94-af9d-9c6c8fbc2b7e"/>
   <path fill="#6c63ff" d="m482.99401,308.75447c-0.585,-0.484 -1.212,0.336 -1.4,1.833l-5.745,45.4c-0.189,1.5 0.131,3.1 0.715,3.591l71.448,59.332c0.585,0.483 1.212,-0.336 1.4,-1.833l5.745,-45.4c0.189,-1.5 -0.131,-3.1 -0.715,-3.59l-71.448,-59.333z" data-name="Path 3006" id="b2eacdd2-0f38-41e0-9c1d-fed48b17417a"/>
   <path fill="#ffb7b7" d="m548.627,375.16346a9.39994,9.39994 0 0 0 -0.495,-14.4l10.783,-31.605l-16.8,4.364l-7.65607,29.342a9.448,9.448 0 0 0 14.172,12.3l-0.00393,-0.001z" data-name="Path 3011" id="eaf2948c-8380-4d0a-863d-b2557c95df9c"/>
   <path fill="#3f3d56" d="m553.44402,355.98347l-16.3,-7.264l5.476,-55.133l-5.1,-55.594l21.76294,-11.745l4.611,5.814l0,0.132l2.443,70.3l-0.013,0.053l-12.87994,53.437z" data-name="Path 3012" id="aa7e7132-63b7-4cde-9eb8-1c9a5bd8e859"/>
  </g>
  <circle fill="#6c63ff" r="38.273" cy="174.95043" cx="169.96802" data-name="Ellipse 574" id="a104c3ba-2391-4ae4-a2ed-0c7a4ec32b98"/>
  <path id="svg_1" fill="#3f3d56" d="m177.88614,202.78667a39.2732,39.2732 0 1 1 39.27295,-39.27345a39.31772,39.31772 0 0 1 -39.27295,39.27345zm0,-76.54639a37.2732,37.2732 0 1 0 37.27295,37.27294a37.31533,37.31533 0 0 0 -37.27295,-37.27294z"/>
  <path id="svg_2" fill="#3f3d56" d="m155.70898,156.42272a3.37043,3.37043 0 0 1 -2.72744,0.40762l-30.47672,-7.62692a25.16757,25.16757 0 0 1 -22.64732,10.32817a25.10976,25.10976 0 1 1 21.05494,-41.6731a25.215,25.215 0 0 1 6.25518,18.59835l28.20517,13.83608a3.41658,3.41658 0 0 1 1.74556,4.34444a3.64027,3.64027 0 0 1 -1.40937,1.78536z"/>
  <circle fill="#6c63ff" r="11.438" cy="134.50561" cx="102.1137" data-name="Ellipse 576" id="bdea7793-cc89-4ee4-bc41-db390ac25cb6"/>
  <path id="svg_3" fill="#e6e6e6" d="m194.94057,82.78746a3.6231,3.6231 0 0 1 -2.334,0.54608a3.41721,3.41721 0 0 1 -3.12915,-3.48326l0.02784,-31.41761a25.10911,25.10911 0 0 1 -10.47839,-38.77067a25.10906,25.10906 0 0 1 40.50663,29.64173a25.206,25.206 0 0 1 -16.53213,10.56877l-6.60228,30.71614a3.38239,3.38239 0 0 1 -1.45852,2.19882z"/>
  <circle fill="#ccc" r="11.438" cy="25.09255" cx="198.83216" data-name="Ellipse 577" id="ac23f470-f1fd-4c0a-b28f-2bfd55c49f5f"/>
  <path id="svg_4" fill="#e6e6e6" d="m319.36123,157.48422a25.20242,25.20242 0 0 1 -22.48431,2.501a25.21057,25.21057 0 0 1 -14.254,-13.48426l-31.39951,1.02564a3.5001,3.5001 0 0 1 -0.95784,-6.8951l30.489,-7.57293a25.10861,25.10861 0 0 1 35.08509,-19.547a25.11277,25.11277 0 0 1 3.52155,43.97258l0.00002,0.00007z"/>
  <circle fill="#ccc" r="11.438" cy="136.46239" cx="305.65888" data-name="Ellipse 578" id="aced7de5-95df-4d5e-8d90-342903f1c606"/>
  <path id="svg_5" fill="#3f3d56" d="m230.7555,257.98679a25.10953,25.10953 0 0 1 -28.96581,-40.97274l-8.59085,-30.21912l0.48074,-0.13668l-0.48074,0.13668a3.49978,3.49978 0 0 1 6.45806,-2.59741l14.72426,27.75124a25.1699,25.1699 0 0 1 22.82955,9.91828a25.11266,25.11266 0 0 1 -6.37416,36.06705l-0.08105,0.0527z"/>
  <circle fill="#6c63ff" r="11.438" cy="236.932" cx="217.10338" data-name="Ellipse 579" id="efff25db-6063-46bc-8769-3c9fa49c679b"/>
  <path id="svg_6" fill="#e6e6e6" d="m86.38186,277.04893a25.12,25.12 0 1 1 1.94188,-40.76711l27.24284,-15.6459a3.49991,3.49991 0 0 1 4.0832,5.63759l-23.36591,21.00118a25.19564,25.19564 0 0 1 -9.902,29.77424l-0.00001,0z"/>
  <circle fill="#ccc" r="11.438" cy="256.45738" cx="71.95619" data-name="Ellipse 584" id="b7a6057d-d1c4-409a-903f-7471ccbd4961"/>
  <path fill="#ccc" d="m1.24701,601.62644l746.281,0a1.247,1.247 0 0 0 0,-2.494l-746.281,0a1.247,1.247 0 0 0 0,2.494z" data-name="Path 2960" id="a964de07-9e14-4299-908e-8aea823fdb33"/>
  <g data-name="Group 58" id="b2bc0a60-0311-4cde-abcb-a5800f320ca8">
   <path fill="#e6e6e6" d="m52.53203,565.63243a16.86808,16.86808 0 0 0 16.29,-2.87c5.706,-4.789 7.494,-12.678 8.95,-19.984l4.305,-21.608l-9.013,6.206c-6.482,4.463 -13.11,9.069 -17.6,15.534s-6.447,15.289 -2.841,22.285" data-name="Path 438" id="be932d9d-31a5-4040-8d3a-b30c81a41453"/>
   <path fill="#f2f2f2" d="m53.92302,593.29643c-1.135,-8.265 -2.3,-16.636 -1.505,-24.99c0.707,-7.419 2.97,-14.665 7.578,-20.607a34.28065,34.28065 0 0 1 8.795,-7.97c0.879,-0.555 1.689,0.839 0.813,1.391a32.589,32.589 0 0 0 -12.89,15.555c-2.806,7.138 -3.257,14.919 -2.773,22.5c0.292,4.586 0.912,9.141 1.537,13.691a0.835,0.835 0 0 1 -0.563,0.991a0.811,0.811 0 0 1 -0.991,-0.563l-0.001,0.002z" data-name="Path 439" id="bf6519ca-44fa-4a1e-8245-55bfa3a5f4dd"/>
   <path fill="#e6e6e6" d="m62.08901,580.03343a12.417,12.417 0 0 0 10.82,5.584c5.477,-0.26 10.043,-4.083 14.154,-7.712l12.158,-10.734l-8.046,-0.385c-5.786,-0.277 -11.722,-0.535 -17.234,1.249s-10.594,6.079 -11.6,11.784" data-name="Path 442" id="bc5fe27d-4a3b-42f9-a167-72a86e254dcc"/>
   <path fill="#f2f2f2" d="m50.717,598.0474c5.461,-9.664 11.8,-20.4 23.115,-23.836a25.79246,25.79246 0 0 1 9.723,-1c1.032,0.089 0.775,1.68 -0.256,1.591a23.96293,23.96293 0 0 0 -15.516,4.1a40.3293,40.3293 0 0 0 -10.664,11.508c-1.766,2.689 -3.348,5.492 -4.93,8.292c-0.506,0.89603 -1.98302,0.25003 -1.472,-0.655z" data-name="Path 443" id="f74e8047-25f3-41ff-822a-fe23ad51caa4"/>
  </g>
  <g data-name="Group 222" id="b2aed082-565e-46c2-a27d-03e098432d58">
   <path fill="#6c63ff" d="m670.22003,567.1027a17.875,17.875 0 0 1 -17.40762,-2.0448c-6.327,-4.71874 -8.699,-12.95651 -10.68377,-20.59531l-5.86721,-22.59837l9.91253,6.01784c7.12956,4.32646 14.41976,8.79746 19.56022,15.36473s7.75015,15.78315 4.35933,23.40148" data-name="Path 2961" id="b9bce9a2-00ae-4a65-ae59-7035543b092c"/>
   <path fill="#f2f2f2" d="m669.29206,597.7528c1.261,-15.92912 2.347,-33.84476 -8.39837,-47.05252a37.1308,37.1308 0 0 0 -10.79518,-9.02442c-1.30352,-0.72485 -2.2765,1.38111 -0.97519,2.10566a34.495,34.495 0 0 1 15.21145,17.3878c2.82568,7.077 3.55573,14.75728 3.463,22.318c-0.05723,4.63067 -0.42585,9.24912 -0.78836,13.86566c-0.11922,1.47324 2.16587,1.88914 2.28265,0.39982z" data-name="Path 2962" id="bdcddb59-4389-453b-946d-a62e607fd832"/>
  </g>
  <path id="svg_13" fill="#454b69" d="m1194.93,197.98001c2.35,-22.18 -6.87,-43.88 -17.31,-63.59c-5,-9.42 -10.36,-18.81 -12.87,-29.16s-1.79,-22.07 4.63,-30.58c5.46,-7.24 14.12,-11.15 22.13,-15.4c22.61,-12 43.28,-29.64 53.22,-53.23c-5.62,3.06 -4.16,12.19 0.8,16.22s11.72,4.81 17.82,6.73c22.24,7 35.58,29.18 46.28,49.9c1.75,3.38 3.53,6.95 3.51,10.76s-1.76,7.19 -3.58,10.43c-5.28,9.4 -11.74,18.43 -14.14,28.94c-2.75,12 0.15,24.62 3.92,36.39c4,12.52 9.31,25.14 18.91,34.12s24.49,13.44 36.3,7.64c-11.79,-20.27 -24,-42.92 -19.4,-65.9c2.22,-11 8.19,-21 10.73,-31.94c4.84,-20.87 -3.22,-42.34 -11.13,-62.26l-23.64,-59.45c-3.61,-9.09 -7.72,-18.79 -16,-23.94c-5.6,-3.47 -12.38,-4.37 -18.94,-5c-21.12,-1.88 -43,-1.26 -62.66,6.6c-35.82,14.31 -58.28,49.59 -76.1,83.81c-5.34,10.25 -10.61,21.14 -10.39,32.7c0.12,6.34 1.89,12.51 3.33,18.69c5.86,25.16 6.18,51.23 6.48,77.06c0.23,19.82 -0.8,38.5 -9.47,56.55c11.88,2.36 29.11,8.73 40.87,4.07c15.33,-6.06 24.77,-24.73 26.7,-40.16z"/>
  <path id="svg_8" fill="#454b69" d="m1194.93,197.98001c2.35,-22.18 -6.87,-43.88 -17.31,-63.59c-5,-9.42 -10.36,-18.81 -12.87,-29.16s-1.79,-22.07 4.63,-30.58c5.46,-7.24 14.12,-11.15 22.13,-15.4c22.61,-12 43.28,-29.64 53.22,-53.23c-5.62,3.06 -4.16,12.19 0.8,16.22s11.72,4.81 17.82,6.73c22.24,7 35.58,29.18 46.28,49.9c1.75,3.38 3.53,6.95 3.51,10.76s-1.76,7.19 -3.58,10.43c-5.28,9.4 -11.74,18.43 -14.14,28.94c-2.75,12 0.15,24.62 3.92,36.39c4,12.52 9.31,25.14 18.91,34.12s24.49,13.44 36.3,7.64c-11.79,-20.27 -24,-42.92 -19.4,-65.9c2.22,-11 8.19,-21 10.73,-31.94c4.84,-20.87 -3.22,-42.34 -11.13,-62.26l-23.64,-59.45c-3.61,-9.09 -7.72,-18.79 -16,-23.94c-5.6,-3.47 -12.38,-4.37 -18.94,-5c-21.12,-1.88 -43,-1.26 -62.66,6.6c-35.82,14.31 -58.28,49.59 -76.1,83.81c-5.34,10.25 -10.61,21.14 -10.39,32.7c0.12,6.34 1.89,12.51 3.33,18.69c5.86,25.16 6.18,51.23 6.48,77.06c0.23,19.82 -0.8,38.5 -9.47,56.55c11.88,2.36 29.11,8.73 40.87,4.07c15.33,-6.06 24.77,-24.73 26.7,-40.16z"/>
  <path id="svg_9" fill="#454b69" d="m1194.93,197.98001c2.35,-22.18 -6.87,-43.88 -17.31,-63.59c-5,-9.42 -10.36,-18.81 -12.87,-29.16s-1.79,-22.07 4.63,-30.58c5.46,-7.24 14.12,-11.15 22.13,-15.4c22.61,-12 43.28,-29.64 53.22,-53.23c-5.62,3.06 -4.16,12.19 0.8,16.22s11.72,4.81 17.82,6.73c22.24,7 35.58,29.18 46.28,49.9c1.75,3.38 3.53,6.95 3.51,10.76s-1.76,7.19 -3.58,10.43c-5.28,9.4 -11.74,18.43 -14.14,28.94c-2.75,12 0.15,24.62 3.92,36.39c4,12.52 9.31,25.14 18.91,34.12s24.49,13.44 36.3,7.64c-11.79,-20.27 -24,-42.92 -19.4,-65.9c2.22,-11 8.19,-21 10.73,-31.94c4.84,-20.87 -3.22,-42.34 -11.13,-62.26l-23.64,-59.45c-3.61,-9.09 -7.72,-18.79 -16,-23.94c-5.6,-3.47 -12.38,-4.37 -18.94,-5c-21.12,-1.88 -43,-1.26 -62.66,6.6c-35.82,14.31 -58.28,49.59 -76.1,83.81c-5.34,10.25 -10.61,21.14 -10.39,32.7c0.12,6.34 1.89,12.51 3.33,18.69c5.86,25.16 6.18,51.23 6.48,77.06c0.23,19.82 -0.8,38.5 -9.47,56.55c11.88,2.36 29.11,8.73 40.87,4.07c15.33,-6.06 24.77,-24.73 26.7,-40.16z"/>
  <path stroke="null" id="svg_10" fill="#454b69" d="m505.01307,205.51791c0.75774,-5.82506 -2.21517,-11.52407 -5.58145,-16.70044c-1.6122,-2.47394 -3.34048,-4.94001 -4.14981,-7.6582s-0.57717,-5.79617 1.4929,-8.03113c1.76053,-1.90142 4.55286,-2.92829 7.13561,-4.04445c7.29038,-3.15152 13.95523,-7.78426 17.16028,-13.97963c-1.81212,0.80364 -1.34135,3.20142 0.25795,4.25981s3.779,1.26324 5.74589,1.76748c7.17108,1.83839 11.47243,7.66345 14.92255,13.10508c0.56427,0.88768 1.13822,1.82526 1.13177,2.82586s-0.5675,1.88829 -1.15434,2.7392c-1.70249,2.46869 -3.78545,4.84021 -4.55931,7.60042c-0.88671,3.15152 0.04837,6.46587 1.26397,9.55699c1.28976,3.28809 3.00192,6.60244 6.09735,8.96083s7.89657,3.5297 11.70459,2.00647c-3.80157,-5.32345 -7.73857,-11.27194 -6.25535,-17.30711c0.71582,-2.8889 2.64079,-5.51516 3.45979,-8.3883c1.56061,-5.48102 -1.03826,-11.11962 -3.58876,-16.35115l-7.62249,-15.61316c-1.16401,-2.38728 -2.48924,-4.93476 -5.15905,-6.28729c-1.80567,-0.91132 -3.99181,-1.14768 -6.10702,-1.31313c-6.80994,-0.49374 -13.86494,-0.33091 -20.20412,1.73334c-11.54982,3.75819 -18.79183,13.02366 -24.53772,22.01075c-1.72183,2.69192 -3.42109,5.55193 -3.35016,8.5879c0.03869,1.66505 0.60941,3.28546 1.07373,4.9085c1.8895,6.60769 1.99268,13.45437 2.08941,20.23802c0.07416,5.20526 -0.25795,10.11113 -3.05351,14.85155c3.83059,0.6198 9.38624,2.29273 13.17814,1.06889c4.94301,-1.59152 7.98685,-6.49476 8.60916,-10.54709z"/>
 </g>
</svg>